<svg width="217" height="224" viewBox="0 0 217 224" fill="none" xmlns="http://www.w3.org/2000/svg">
<path d="M23.1862 59.6404L32.5448 65.4162L31.2081 67.5821L23.5875 62.8789L22.4323 64.7506L20.6943 63.678L23.1862 59.6404Z" fill="#233442"/>
<path d="M38.4941 53.8907L40.1112 55.1889L34.9085 61.6699L33.6221 60.6372L33.1535 54.8214C33.1005 54.2014 33.0048 53.735 32.8663 53.4224C32.7196 53.1032 32.5278 52.8485 32.291 52.6583C31.9479 52.383 31.5915 52.2916 31.2217 52.3842C30.8502 52.4621 30.4842 52.7256 30.1236 53.1749C29.822 53.5506 29.6234 53.9485 29.5278 54.3688C29.424 54.7824 29.4331 55.2061 29.5551 55.6398L27.4635 56.338C27.2341 55.6031 27.2165 54.8302 27.4109 54.0192C27.5971 53.2017 27.9951 52.4131 28.6049 51.6535C29.1163 51.0165 29.6684 50.5463 30.261 50.243C30.852 49.9251 31.4444 49.7895 32.0381 49.8363C32.6302 49.8684 33.1835 50.0909 33.6981 50.504C34.1636 50.8777 34.5219 51.3265 34.7729 51.8504C35.0239 52.3742 35.1846 53.1278 35.2549 54.111L35.5337 57.5784L38.4941 53.8907Z" fill="#233442"/>
<path d="M52.5757 40.6075L48.5128 43.7001L49.1651 46.1652L47.0899 47.7448L44.3293 36.0252L46.3294 34.5027L56.9033 40.275L54.7781 41.8927L52.5757 40.6075ZM50.7677 39.5552L46.8299 37.2611L47.9925 41.6677L50.7677 39.5552Z" fill="#233442"/>
<path d="M64.966 23.3576L69.8779 33.1972L68.0084 34.1304L60.1204 30.6053L63.1026 36.5793L60.8536 37.7021L55.9417 27.8625L57.8253 26.9222L65.6992 30.4543L62.7169 24.4803L64.966 23.3576ZM61.1292 24.3247C60.8761 24.451 60.6279 24.5164 60.3843 24.5209C60.1454 24.5114 59.8667 24.4808 59.5482 24.4291C59.3422 24.3915 59.1736 24.3703 59.0424 24.3655C58.9206 24.3561 58.8129 24.3747 58.7192 24.4215C58.5224 24.5197 58.3982 24.6695 58.3465 24.8709C58.2902 25.0629 58.3205 25.2878 58.4374 25.5455L57.3269 26.0998C57.0323 25.4626 56.9389 24.8888 57.047 24.3783C57.1598 23.8537 57.4598 23.4698 57.9471 23.2266C58.1907 23.105 58.432 23.0489 58.6709 23.0584C58.9144 23.0539 59.2025 23.0798 59.535 23.1363C59.7411 23.1739 59.905 23.1974 60.0268 23.2068C60.1579 23.2116 60.2704 23.1906 60.3641 23.1438C60.5515 23.0503 60.6734 22.9075 60.7297 22.7155C60.7907 22.5094 60.7675 22.2869 60.6599 22.0479L61.7704 21.4936C62.0557 22.1121 62.1396 22.6789 62.0222 23.1941C61.9141 23.7046 61.6165 24.0814 61.1292 24.3247Z" fill="#233442"/>
<path d="M80.8922 29.4809C79.7907 29.7807 78.7306 29.8142 77.7119 29.5813C76.7034 29.3456 75.8337 28.8822 75.1028 28.1911C74.3793 27.4871 73.8759 26.6146 73.5925 25.5737C73.3092 24.5327 73.3023 23.5305 73.572 22.567C73.8489 21.5907 74.3624 20.7454 75.1123 20.031C75.8724 19.314 76.8032 18.8055 77.9047 18.5057C79.0063 18.2058 80.0613 18.1737 81.0699 18.4094C82.0784 18.645 82.9495 19.1135 83.6831 19.8148C84.414 20.5059 84.9211 21.3719 85.2044 22.4129C85.4878 23.4538 85.4909 24.4624 85.214 25.4388C84.9342 26.405 84.4194 27.2453 83.6695 27.9596C82.9195 28.6739 81.9938 29.181 80.8922 29.4809ZM80.3228 27.3889C80.9494 27.2184 81.4768 26.9228 81.9051 26.5023C82.3306 26.0717 82.6147 25.5602 82.7574 24.9677C82.9101 24.3725 82.8971 23.7465 82.7183 23.0896C82.5395 22.4327 82.2334 21.8864 81.8001 21.4508C81.3768 21.0124 80.874 20.7205 80.2917 20.5751C79.7066 20.4196 79.1008 20.4271 78.4742 20.5976C77.8476 20.7682 77.3215 21.0688 76.896 21.4994C76.4677 21.9199 76.1772 22.4278 76.0244 23.0229C75.8818 23.6154 75.8998 24.24 76.0786 24.8969C76.2574 25.5538 76.5585 26.1015 76.9817 26.5399C77.4151 26.9755 77.9243 27.2711 78.5094 27.4266C79.0918 27.572 79.6962 27.5595 80.3228 27.3889Z" fill="#233442"/>
<path d="M96.049 26.5772C95.1829 26.652 94.333 26.6098 93.4992 26.4505C92.675 26.2799 92.0015 26.0279 91.4786 25.6946L92.1745 23.7107C92.6738 24.0145 93.256 24.2428 93.921 24.3956C94.586 24.5484 95.242 24.5969 95.8889 24.541C96.6089 24.4788 97.1321 24.3285 97.4584 24.0901C97.7838 23.8412 97.9312 23.5394 97.9006 23.1846C97.8781 22.9237 97.7552 22.7188 97.5321 22.5699C97.3185 22.4096 97.0455 22.2913 96.713 22.2148C96.3909 22.1375 95.9532 22.0597 95.3997 21.9814C94.5478 21.8552 93.8472 21.716 93.2979 21.5637C92.7486 21.4114 92.262 21.1328 91.838 20.7278C91.4245 20.322 91.1862 19.7539 91.1231 19.0235C91.0681 18.3869 91.1907 17.7981 91.4909 17.2571C91.7902 16.7056 92.2711 16.2488 92.9337 15.8867C93.6067 15.5237 94.4441 15.2989 95.4458 15.2124C96.145 15.152 96.8357 15.1764 97.5179 15.2857C98.2002 15.395 98.8053 15.5845 99.3332 15.8543L98.7169 17.8472C97.6551 17.3607 96.6181 17.1611 95.606 17.2486C94.8964 17.3098 94.3793 17.4701 94.0548 17.7295C93.7407 17.9879 93.5999 18.3049 93.6323 18.6806C93.6648 19.0562 93.8822 19.3213 94.2845 19.4758C94.6963 19.6189 95.3117 19.7445 96.1305 19.8525C96.9824 19.9786 97.683 20.1179 98.2323 20.2702C98.7816 20.4225 99.2626 20.6963 99.6752 21.0917C100.098 21.4862 100.341 22.0486 100.404 22.7791C100.458 23.4052 100.331 23.9944 100.021 24.5468C99.7208 25.0879 99.2342 25.5399 98.5612 25.9029C97.8882 26.2659 97.0508 26.4907 96.049 26.5772Z" fill="#233442"/>
<path d="M114.522 15.3107L119.446 16.158C120.623 16.3605 121.621 16.7661 122.441 17.3748C123.273 17.9749 123.866 18.7254 124.221 19.6261C124.587 20.5285 124.676 21.5217 124.49 22.6055C124.303 23.6893 123.887 24.5954 123.241 25.3238C122.605 26.054 121.794 26.5681 120.808 26.8659C119.833 27.1552 118.758 27.1986 117.581 26.9962L112.657 26.1489L114.522 15.3107ZM117.811 24.9156C118.895 25.1021 119.809 24.9511 120.552 24.4625C121.307 23.9654 121.773 23.2008 121.951 22.1686C122.128 21.1363 121.943 20.265 121.396 19.5544C120.861 18.8352 120.052 18.3824 118.968 18.1959L116.676 17.8016L115.52 24.5213L117.811 24.9156Z" fill="#233442"/>
<path d="M137.686 30.4561L136.985 32.3746L128.987 29.4547L132.758 19.124L140.565 21.9739L139.864 23.8925L134.433 21.9099L133.614 24.1531L138.411 25.904L137.732 27.7636L132.936 26.0127L132.063 28.4035L137.686 30.4561Z" fill="#233442"/>
<path d="M145.017 36.4891C144.258 36.0644 143.579 35.552 142.978 34.9519C142.392 34.3477 141.977 33.7609 141.731 33.1914L143.422 31.9411C143.664 32.4729 144.017 32.9888 144.482 33.4888C144.946 33.9888 145.461 34.3974 146.028 34.7147C146.659 35.0677 147.176 35.2373 147.58 35.2233C147.989 35.2002 148.28 35.0333 148.454 34.7226C148.582 34.4941 148.596 34.2556 148.495 34.0071C148.408 33.7545 148.249 33.5032 148.017 33.2532C147.794 33.0083 147.475 32.698 147.061 32.3223C146.427 31.7393 145.926 31.2306 145.557 30.796C145.188 30.3614 144.942 29.8575 144.819 29.2844C144.705 28.7163 144.827 28.1125 145.185 27.4727C145.497 26.9153 145.929 26.497 146.482 26.2181C147.039 25.93 147.694 25.8222 148.445 25.8949C149.206 25.9727 150.025 26.2571 150.902 26.7483C151.514 27.0911 152.072 27.4994 152.575 27.973C153.078 28.4467 153.472 28.9434 153.757 29.4632L152.128 30.7656C151.523 29.7667 150.777 29.0191 149.891 28.5228C149.269 28.1748 148.751 28.017 148.337 28.0492C147.932 28.0865 147.638 28.2697 147.453 28.5987C147.269 28.9277 147.3 29.2691 147.546 29.6229C147.807 29.9727 148.245 30.4223 148.862 30.9716C149.496 31.5546 149.997 32.0633 150.366 32.4979C150.735 32.9325 150.979 33.4292 151.098 33.9881C151.227 34.5521 151.112 35.154 150.753 35.7937C150.446 36.3421 150.01 36.7578 149.443 37.0407C148.891 37.3197 148.234 37.4203 147.474 37.3425C146.713 37.2648 145.894 36.9803 145.017 36.4891Z" fill="#233442"/>
<path d="M160.643 44.0558L156.674 40.8438L154.434 42.063L152.407 40.4224L163.136 34.957L165.09 36.5383L161.994 48.1806L159.918 46.5005L160.643 44.0558ZM161.236 42.0496L162.529 37.6796L158.525 39.8556L161.236 42.0496Z" fill="#233442"/>
<path d="M169.967 56.7449L170.904 53.1387L170.822 53.0434L169.377 51.3647L167.055 53.3636L165.395 51.4349L173.729 44.2594L176.835 47.8668C177.47 48.605 177.897 49.3499 178.116 50.1014C178.342 50.8609 178.354 51.5823 178.155 52.2655C177.955 52.9487 177.546 53.5568 176.927 54.0899C176.308 54.6229 175.642 54.9334 174.93 55.0213C174.233 55.1103 173.529 54.9835 172.82 54.6409L171.75 58.8165L169.967 56.7449ZM175.246 52.1373C175.714 51.7341 175.941 51.2758 175.928 50.7623C175.922 50.242 175.67 49.6922 175.171 49.1128L173.818 47.5412L170.913 50.0424L172.266 51.614C172.765 52.1934 173.271 52.5245 173.785 52.6075C174.298 52.6904 174.785 52.5337 175.246 52.1373Z" fill="#233442"/>
<path d="M178.209 69.5918L179.765 66.2061L179.701 66.0979L178.572 64.1916L175.936 65.7521L174.64 63.5619L184.104 57.9602L186.528 62.0567C187.024 62.8949 187.314 63.7032 187.398 64.4815C187.486 65.2688 187.372 65.9812 187.056 66.6188C186.74 67.2564 186.23 67.7832 185.527 68.1994C184.824 68.6155 184.114 68.8044 183.398 68.7659C182.696 68.7312 182.025 68.4829 181.387 68.021L179.601 71.9442L178.209 69.5918ZM184.215 65.9821C184.746 65.6674 185.051 65.256 185.127 64.7481C185.213 64.2349 185.061 63.6493 184.672 62.9914L183.615 61.2067L180.317 63.1593L181.373 64.944C181.762 65.6019 182.203 66.0168 182.694 66.1886C183.185 66.3604 183.692 66.2915 184.215 65.9821Z" fill="#233442"/>
<path d="M183.979 81.2399C183.592 80.1656 183.475 79.1115 183.626 78.0776C183.781 77.0536 184.174 76.1499 184.805 75.3664C185.449 74.5893 186.279 74.0182 187.294 73.6532C188.309 73.2881 189.308 73.2017 190.289 73.394C191.285 73.5926 192.168 74.0373 192.94 74.7282C193.715 75.429 194.296 76.3165 194.682 77.3907C195.068 78.465 195.184 79.5142 195.029 80.5382C194.874 81.5623 194.476 82.4678 193.836 83.2548C193.205 84.0382 192.382 84.6125 191.366 84.9775C190.351 85.3426 189.346 85.4258 188.351 85.2272C187.365 85.0251 186.487 84.5785 185.715 83.8877C184.944 83.1968 184.365 82.3142 183.979 81.2399ZM186.019 80.5062C186.238 81.1173 186.575 81.6196 187.028 82.0132C187.491 82.4032 188.024 82.6458 188.625 82.741C189.231 82.846 189.854 82.7834 190.495 82.553C191.135 82.3226 191.655 81.9741 192.055 81.5075C192.459 81.0508 192.71 80.5264 192.809 79.9344C192.917 79.3388 192.862 78.7355 192.642 78.1244C192.422 77.5134 192.081 77.0128 191.618 76.6228C191.164 76.2293 190.635 75.98 190.03 75.8749C189.428 75.7797 188.807 75.8473 188.166 76.0777C187.525 76.3081 187.003 76.6516 186.6 77.1084C186.2 77.5749 185.946 78.106 185.837 78.7016C185.738 79.2936 185.799 79.8952 186.019 80.5062Z" fill="#233442"/>
<path d="M198.482 90.6597L198.913 93.168L190.119 94.6815L191.054 100.116L189.01 100.468L187.644 92.525L198.482 90.6597Z" fill="#233442"/>
<path d="M200.477 104.71L200.535 107.255L191.614 107.459L191.74 112.972L189.667 113.019L189.482 104.962L200.477 104.71Z" fill="#233442"/>
<path d="M190.862 125.06L191.586 120.006L189.392 118.707L189.761 116.126L199.953 122.537L199.596 125.026L188.013 128.334L188.391 125.69L190.862 125.06ZM192.889 124.541L197.304 123.412L193.383 121.088L192.889 124.541Z" fill="#233442"/>
<path d="M194.141 146.045L183.736 142.483L184.413 140.506L192.506 137.482L186.189 135.319L187.004 132.94L197.408 136.503L196.726 138.495L188.638 141.504L194.955 143.667L194.141 146.045Z" fill="#233442"/>
<path d="M190.845 153.841L188.345 158.167C187.748 159.201 187.022 159.997 186.167 160.555C185.316 161.128 184.407 161.425 183.439 161.446C182.465 161.477 181.503 161.217 180.55 160.667C179.598 160.117 178.892 159.412 178.433 158.554C177.968 157.705 177.766 156.766 177.828 155.737C177.894 154.723 178.226 153.699 178.823 152.665L181.323 148.339L190.845 153.841ZM180.695 153.602C180.145 154.554 179.971 155.463 180.172 156.329C180.377 157.21 180.933 157.912 181.839 158.436C182.746 158.96 183.628 159.088 184.484 158.821C185.344 158.568 186.049 157.965 186.599 157.013L187.762 154.999L181.859 151.588L180.695 153.602Z" fill="#233442"/>
<path d="M168.98 166.466C169.736 165.609 170.603 164.998 171.581 164.633C172.553 164.275 173.535 164.184 174.525 164.359C175.517 164.549 176.417 165.001 177.226 165.715C178.035 166.428 178.592 167.262 178.896 168.215C179.202 169.182 179.238 170.171 179.004 171.18C178.764 172.197 178.266 173.133 177.511 173.989C176.756 174.846 175.892 175.453 174.92 175.81C173.948 176.168 172.963 176.256 171.965 176.074C170.974 175.898 170.075 175.454 169.265 174.74C168.456 174.027 167.899 173.186 167.594 172.218C167.296 171.257 167.264 170.272 167.497 169.263C167.731 168.254 168.225 167.322 168.98 166.466ZM170.606 167.9C170.177 168.387 169.899 168.924 169.772 169.51C169.654 170.104 169.698 170.687 169.904 171.261C170.104 171.842 170.459 172.358 170.97 172.808C171.48 173.258 172.036 173.546 172.638 173.672C173.233 173.805 173.813 173.772 174.379 173.574C174.954 173.382 175.455 173.042 175.885 172.555C176.315 172.068 176.589 171.528 176.707 170.934C176.834 170.348 176.797 169.764 176.597 169.183C176.391 168.609 176.032 168.097 175.522 167.647C175.011 167.197 174.458 166.905 173.864 166.772C173.262 166.646 172.674 166.679 172.1 166.871C171.534 167.07 171.036 167.413 170.606 167.9Z" fill="#233442"/>
<path d="M151.027 182.26C151.99 181.648 152.993 181.303 154.035 181.225C155.068 181.152 156.036 181.337 156.939 181.782C157.838 182.24 158.577 182.925 159.155 183.836C159.733 184.746 160.036 185.702 160.063 186.702C160.087 187.716 159.846 188.676 159.341 189.58C158.827 190.49 158.088 191.25 157.124 191.862C156.161 192.474 155.162 192.817 154.129 192.89C153.096 192.963 152.125 192.773 151.217 192.32C150.315 191.875 149.574 191.198 148.996 190.287C148.418 189.376 148.116 188.414 148.093 187.399C148.074 186.393 148.318 185.439 148.823 184.534C149.328 183.63 150.063 182.872 151.027 182.26ZM152.189 184.091C151.641 184.439 151.224 184.877 150.939 185.405C150.66 185.942 150.54 186.515 150.579 187.123C150.609 187.737 150.806 188.331 151.171 188.906C151.536 189.481 151.99 189.912 152.533 190.2C153.066 190.494 153.633 190.624 154.232 190.591C154.837 190.567 155.414 190.38 155.962 190.032C156.51 189.684 156.924 189.241 157.203 188.704C157.488 188.176 157.615 187.605 157.586 186.991C157.547 186.383 157.345 185.792 156.98 185.217C156.615 184.642 156.165 184.208 155.632 183.914C155.089 183.626 154.515 183.494 153.91 183.519C153.311 183.552 152.737 183.742 152.189 184.091Z" fill="#233442"/>
<path d="M135.407 196.662C134.749 196.706 134.169 196.574 133.665 196.265C133.165 195.966 132.791 195.499 132.543 194.865C132.192 193.968 132.272 193.138 132.783 192.375C133.288 191.626 134.209 190.99 135.545 190.467L140.84 188.392L144.851 198.632L139.848 200.592C138.6 201.081 137.551 201.216 136.701 200.998C135.84 200.784 135.25 200.267 134.929 199.448C134.734 198.951 134.682 198.459 134.773 197.974C134.854 197.492 135.066 197.055 135.407 196.662ZM141.797 197.77L140.852 195.356L138.496 196.279C137.911 196.508 137.508 196.784 137.286 197.108C137.063 197.431 137.031 197.792 137.187 198.192C137.344 198.592 137.612 198.83 137.99 198.907C138.373 198.993 138.857 198.922 139.442 198.693L141.797 197.77ZM136.419 192.183C135.795 192.427 135.367 192.713 135.135 193.04C134.894 193.371 134.857 193.751 135.025 194.18C135.357 195.028 136.153 195.206 137.411 194.713L140.175 193.63L139.184 191.1L136.419 192.183Z" fill="#233442"/>
<path d="M119.318 195.059L121.989 197.657L122.112 197.633L124.286 197.206L123.696 194.2L126.194 193.71L128.311 204.502L123.64 205.418C122.684 205.606 121.825 205.609 121.064 205.427C120.292 205.248 119.659 204.903 119.164 204.391C118.668 203.88 118.342 203.224 118.185 202.422C118.027 201.62 118.087 200.888 118.362 200.226C118.63 199.576 119.088 199.027 119.736 198.579L116.635 195.586L119.318 195.059ZM120.713 201.926C120.832 202.532 121.118 202.957 121.571 203.198C122.026 203.451 122.629 203.503 123.379 203.356L125.414 202.957L124.676 199.195L122.641 199.594C121.891 199.742 121.353 200.018 121.027 200.423C120.701 200.829 120.596 201.33 120.713 201.926Z" fill="#233442"/>
<path d="M104.161 198.728L109.266 198.656L110.207 196.285L112.815 196.249L108.069 207.314L105.556 207.35L100.483 196.423L103.154 196.385L104.161 198.728ZM104.99 200.649L106.793 204.834L108.477 200.599L104.99 200.649Z" fill="#233442"/>
<path d="M92.261 195.304C93.1198 195.439 93.9349 195.684 94.7062 196.038C95.4655 196.401 96.0591 196.807 96.4868 197.256L95.3358 199.016C94.9238 198.601 94.4133 198.24 93.8043 197.932C93.1953 197.624 92.5701 197.42 91.9286 197.319C91.2146 197.207 90.6707 197.228 90.2967 197.381C89.9211 197.545 89.7057 197.802 89.6504 198.154C89.6098 198.413 89.68 198.641 89.8609 198.839C90.0298 199.046 90.2666 199.226 90.5711 199.38C90.8652 199.532 91.2716 199.713 91.7901 199.922C92.587 200.248 93.2338 200.551 93.7306 200.831C94.2274 201.11 94.6331 201.497 94.9477 201.992C95.2519 202.485 95.3471 203.094 95.2333 203.818C95.1342 204.449 94.874 204.992 94.4529 205.445C94.0302 205.909 93.4538 206.237 92.7238 206.43C91.9834 206.621 91.1166 206.638 90.1233 206.482C89.43 206.373 88.7653 206.184 88.1291 205.915C87.4929 205.645 86.9509 205.316 86.503 204.928L87.5789 203.14C88.4932 203.867 89.4521 204.309 90.4558 204.467C91.1594 204.578 91.6998 204.546 92.077 204.372C92.4438 204.196 92.6565 203.922 92.715 203.55C92.7736 203.177 92.626 202.868 92.2724 202.621C91.9069 202.384 91.3396 202.114 90.5705 201.813C89.7736 201.487 89.1268 201.184 88.63 200.904C88.1332 200.625 87.7319 200.244 87.426 199.761C87.1098 199.276 87.0086 198.672 87.1224 197.948C87.2199 197.327 87.4852 196.786 87.9183 196.324C88.3394 195.87 88.9201 195.548 89.6605 195.357C90.4009 195.166 91.2677 195.148 92.261 195.304Z" fill="#233442"/>
<path d="M71.2938 189.454C72.3248 189.893 73.1651 190.513 73.8145 191.313C74.4502 192.119 74.8406 193.02 74.9858 194.015C75.1172 195.016 74.9694 196.018 74.5424 197.02C74.1154 198.022 73.4976 198.818 72.6888 199.406C71.8662 200.001 70.9462 200.343 69.9287 200.433C68.8974 200.529 67.8615 200.355 66.8208 199.912C65.944 199.538 65.2196 199.047 64.6475 198.439C64.0659 197.827 63.6573 197.13 63.4219 196.346L65.5162 195.599C65.8637 196.681 66.5433 197.437 67.555 197.868C68.1814 198.135 68.7998 198.233 69.4102 198.163C70.0166 198.103 70.5642 197.886 71.053 197.514C71.5322 197.138 71.9052 196.636 72.1721 196.01C72.4389 195.384 72.5421 194.767 72.4817 194.161C72.4117 193.55 72.1904 193.001 71.8181 192.512C71.4416 192.033 70.9402 191.66 70.3139 191.393C69.3022 190.962 68.2839 191 67.259 191.509L66.347 189.481C67.0792 189.098 67.8675 188.905 68.712 188.9C69.5564 188.896 70.417 189.08 71.2938 189.454Z" fill="#233442"/>
<path d="M56.8619 194.801L54.6736 193.502L60.2888 184.046L62.4772 185.346L56.8619 194.801Z" fill="#233442"/>
<path d="M40.7552 183.448L51.319 177.79L53.2884 179.352L50.1713 190.917L48.0173 189.208L50.2772 180.974L42.7369 185.02L40.7552 183.448Z" fill="#233442"/>
<path d="M36.3193 179.129L34.5557 177.294L42.4852 169.673L44.2487 171.508L36.3193 179.129Z" fill="#233442"/>
<path d="M30.2255 172.538L28.6916 170.507L35.8125 165.129L32.4891 160.728L34.144 159.479L39.0013 165.91L30.2255 172.538Z" fill="#233442"/>
<path d="M25.8121 149.17L27.6129 148.206L31.6301 155.714L21.9334 160.902L18.0126 153.574L19.8134 152.611L22.5409 157.709L24.6465 156.582L22.2376 152.08L23.983 151.146L26.3919 155.648L28.636 154.447L25.8121 149.17Z" fill="#233442"/>
<path d="M24.3681 139.786C24.6505 140.608 24.8155 141.443 24.8631 142.29C24.8973 143.131 24.8161 143.846 24.6195 144.434L22.526 144.239C22.6997 143.681 22.7801 143.061 22.7672 142.379C22.7543 141.697 22.6424 141.049 22.4314 140.434C22.1966 139.751 21.9239 139.28 21.6135 139.021C21.2932 138.766 20.9646 138.696 20.6279 138.811C20.3802 138.897 20.2112 139.065 20.1208 139.318C20.017 139.564 19.9684 139.858 19.9749 140.199C19.9779 140.53 20.0085 140.973 20.0666 141.529C20.1506 142.386 20.1854 143.1 20.1707 143.67C20.1561 144.24 20.0037 144.779 19.7136 145.289C19.4201 145.788 18.9266 146.157 18.2333 146.395C17.629 146.603 17.0281 146.627 16.4304 146.467C15.8228 146.31 15.2631 145.954 14.7512 145.399C14.2359 144.834 13.8149 144.076 13.4882 143.125C13.2602 142.461 13.1165 141.785 13.0572 141.097C12.9979 140.409 13.0351 139.776 13.1689 139.198L15.2517 139.313C15.0371 140.461 15.0948 141.515 15.4249 142.476C15.6563 143.15 15.9371 143.613 16.2674 143.865C16.5942 144.107 16.9359 144.167 17.2925 144.044C17.6491 143.922 17.8536 143.646 17.906 143.219C17.945 142.784 17.9177 142.157 17.8241 141.336C17.74 140.479 17.7053 139.766 17.7199 139.196C17.7346 138.626 17.8837 138.093 18.1673 137.597C18.4475 137.091 18.9343 136.719 19.6277 136.481C20.222 136.276 20.8246 136.258 21.4356 136.424C22.0333 136.584 22.5898 136.947 23.1051 137.512C23.6203 138.077 24.0413 138.835 24.3681 139.786Z" fill="#233442"/>
<g clip-path="url(#clip0_598_295)">
<path d="M65.3633 78.3186V142.631L107.732 168.309V53.6909L65.3633 78.3186Z" fill="url(#paint0_linear_598_295)"/>
<path d="M150.218 123.256V78.3189L120.338 61.0444V139.713L150.218 123.256Z" fill="url(#paint1_linear_598_295)"/>
<path d="M107.732 168.309L150.218 142.631V137.729L107.732 161.656V168.309Z" fill="url(#paint2_linear_598_295)"/>
</g>
<defs>
<linearGradient id="paint0_linear_598_295" x1="86.532" y1="57.7482" x2="86.532" y2="152.635" gradientUnits="userSpaceOnUse">
<stop stop-color="#34495E"/>
<stop offset="1" stop-color="#233442"/>
</linearGradient>
<linearGradient id="paint1_linear_598_295" x1="135.28" y1="56.6458" x2="135.28" y2="156.764" gradientUnits="userSpaceOnUse">
<stop stop-color="#34495E"/>
<stop offset="1" stop-color="#233442"/>
</linearGradient>
<linearGradient id="paint2_linear_598_295" x1="128.97" y1="56.6454" x2="128.97" y2="156.763" gradientUnits="userSpaceOnUse">
<stop stop-color="#34495E"/>
<stop offset="1" stop-color="#233442"/>
</linearGradient>
<clipPath id="clip0_598_295">
<rect width="84.8548" height="114.618" fill="white" transform="translate(65.3633 53.6909)"/>
</clipPath>
</defs>
</svg>
