<svg width="66" height="65" viewBox="0 0 66 65" fill="none" xmlns="http://www.w3.org/2000/svg">
<path d="M66 32.0294L49.5 59.7677L16.5 59.7677L-1.44192e-06 32.0294L16.5 4.29113L49.5 4.29113L66 32.0294Z" fill="#FF283F"/>
<path d="M30.714 29.0166H21.9563C20.3508 29.0166 19.0371 30.3303 19.0371 31.9358C19.0371 33.5414 20.3508 34.8551 21.9563 34.8551H30.714H36.5525H45.3102C46.9158 34.8551 48.2294 33.5414 48.2294 31.9358C48.2294 30.3303 46.9158 29.0166 45.3102 29.0166H36.5525H30.714Z" fill="white"/>
<path d="M36.5527 29.0168L36.5527 20.2591C36.5527 18.6535 35.2391 17.3398 33.6335 17.3398C32.0279 17.3398 30.7143 18.6535 30.7143 20.2591L30.7143 29.0168L30.7143 34.8552L30.7143 43.6129C30.7143 45.2185 32.0279 46.5322 33.6335 46.5322C35.2391 46.5322 36.5527 45.2185 36.5527 43.6129L36.5527 34.8552L36.5527 29.0168Z" fill="white"/>
</svg>
