<svg width="184" height="60" viewBox="0 0 184 60" fill="none" xmlns="http://www.w3.org/2000/svg">
<path d="M73.4882 49.2219H59.4263V23.3311H65.7274V43.5516H73.4882V49.2219Z" fill="white"/>
<path d="M91.5015 43.4446H83.3847L81.5335 49.2575H75.1968L84.1323 23.3667H90.7895L99.725 49.2575H93.3883L91.5015 43.4446ZM89.8639 38.2379L87.4431 30.0355L85.0223 38.2379H89.8639Z" fill="white"/>
<path d="M120.587 47.1178H114.784L109.088 32.2466V49.2219H103.036V23.3311H111.224L117.632 39.7001L124.076 23.3311H132.264V49.2219H126.212V32.2466L120.587 47.1178Z" fill="white"/>
<path d="M151.986 43.4446H143.869L142.018 49.2575H135.681L144.617 23.3667H151.274L160.209 49.2575H153.873L151.986 43.4446ZM150.384 38.2379L147.963 30.0355L145.542 38.2379H150.384Z" fill="white"/>
<path d="M181.106 31.3194C181.106 32.7815 180.786 34.1367 180.181 35.3849C179.576 36.5974 178.686 37.5246 177.511 38.1666L183.456 49.2575H176.478L171.85 39.6644H169.928V49.2575H163.627V23.3667H172.028C178.08 23.3667 181.106 26.0057 181.106 31.3194ZM171.53 28.7874H169.928V34.3863H171.815C172.669 34.3863 173.346 34.1367 173.88 33.6374C174.378 33.1382 174.627 32.4249 174.627 31.5334C174.627 29.7146 173.595 28.7874 171.53 28.7874Z" fill="white"/>
<path d="M63.8048 10.8849C62.986 10.8849 62.3096 11.1702 61.8468 11.7764C61.384 12.3827 61.1348 13.1673 61.1348 14.2015C61.1348 15.2713 61.3484 16.0916 61.8112 16.6622C62.274 17.2328 62.9148 17.4824 63.8048 17.4824C64.1964 17.4824 64.5524 17.4467 64.9084 17.3754C65.2644 17.3041 65.6204 17.1971 66.012 17.0901V18.3383C65.3356 18.5879 64.5168 18.7306 63.6624 18.7306C62.3808 18.7306 61.384 18.3383 60.672 17.5537C59.9956 16.7692 59.6396 15.6636 59.6396 14.2015C59.6396 13.2743 59.8177 12.4897 60.138 11.7764C60.4584 11.0989 60.9568 10.5639 61.5976 10.2073C62.2384 9.85067 62.986 9.67236 63.8404 9.67236C64.7304 9.67236 65.5848 9.85067 66.3324 10.243L65.7984 11.4555C65.5136 11.3128 65.1932 11.2058 64.8372 11.0989C64.5168 10.9205 64.1608 10.8849 63.8048 10.8849Z" fill="white"/>
<path d="M75.9085 14.1658C75.9085 15.5923 75.5525 16.7335 74.8406 17.5181C74.1286 18.3027 73.0962 18.7306 71.779 18.7306C70.4618 18.7306 69.4294 18.3383 68.7174 17.5538C68.0054 16.7692 67.6494 15.628 67.6494 14.1658C67.6494 12.7037 68.0054 11.5981 68.7174 10.8136C69.4294 10.029 70.4618 9.63672 71.779 9.63672C73.0962 9.63672 74.093 10.029 74.8406 10.8136C75.5881 11.5981 75.9085 12.7393 75.9085 14.1658ZM69.1802 14.1658C69.1802 15.2714 69.3938 16.0916 69.821 16.6622C70.2482 17.2328 70.9246 17.5181 71.779 17.5181C72.6334 17.5181 73.2742 17.2328 73.737 16.6979C74.1642 16.1273 74.3778 15.307 74.3778 14.2015C74.3778 13.1316 74.1642 12.2757 73.737 11.7408C73.3098 11.2059 72.669 10.8849 71.8146 10.8849C70.9602 10.8849 70.2838 11.1702 69.8566 11.7408C69.3938 12.2757 69.1802 13.096 69.1802 14.1658Z" fill="white"/>
<path d="M85.3784 18.6236H83.5984L79.2553 11.5624H79.2197L79.2553 11.9547C79.3265 12.7036 79.3265 13.3812 79.3265 14.0231V18.6236H78.0093V9.7793H79.7537L84.0968 16.8048H84.1324C84.1324 16.6978 84.0968 16.3768 84.0968 15.8062C84.0612 15.2356 84.0612 14.772 84.0612 14.4511V9.81496H85.3784V18.6236Z" fill="white"/>
<path d="M92.9612 16.1986C92.9612 16.9831 92.6764 17.5894 92.1068 18.053C91.5372 18.5166 90.754 18.7306 89.7572 18.7306C88.7604 18.7306 87.9416 18.5879 87.3008 18.267V16.9118C87.6924 17.0901 88.1196 17.2684 88.5824 17.3754C89.0452 17.4824 89.4724 17.5537 89.864 17.5537C90.4336 17.5537 90.8608 17.4467 91.1456 17.2328C91.4304 17.0188 91.5372 16.7335 91.5372 16.3412C91.5372 16.0203 91.3948 15.735 91.1456 15.4853C90.8964 15.2713 90.398 14.986 89.6148 14.6651C88.796 14.3441 88.2264 13.9518 87.906 13.5596C87.5856 13.1316 87.4076 12.6323 87.4076 12.0617C87.4076 11.3128 87.6568 10.7422 88.1908 10.3143C88.7248 9.88634 89.4012 9.67236 90.2912 9.67236C91.1456 9.67236 91.9644 9.85067 92.8188 10.243L92.3559 11.4198C91.5728 11.0989 90.8608 10.9205 90.2556 10.9205C89.7928 10.9205 89.4368 11.0275 89.1876 11.2415C88.9384 11.4555 88.8316 11.7051 88.8316 12.0617C88.8316 12.2757 88.8672 12.4897 88.974 12.668C89.0808 12.8463 89.2232 12.989 89.4368 13.1316C89.6504 13.2743 90.042 13.4526 90.6472 13.7022C91.288 13.9875 91.7864 14.2371 92.0712 14.4511C92.356 14.7008 92.6052 14.9504 92.7476 15.2357C92.8899 15.4853 92.9612 15.8063 92.9612 16.1986Z" fill="white"/>
<path d="M102.715 14.1658C102.715 15.5923 102.359 16.7335 101.647 17.5181C100.935 18.3027 99.9028 18.7306 98.5856 18.7306C97.2684 18.7306 96.236 18.3383 95.524 17.5538C94.8121 16.7692 94.4561 15.628 94.4561 14.1658C94.4561 12.7037 94.8121 11.5981 95.524 10.8136C96.236 10.029 97.2684 9.63672 98.5856 9.63672C99.9028 9.63672 100.9 10.029 101.647 10.8136C102.395 11.5981 102.715 12.7393 102.715 14.1658ZM95.9868 14.1658C95.9868 15.2714 96.2004 16.0916 96.6276 16.6622C97.0548 17.2328 97.7312 17.5181 98.5856 17.5181C99.44 17.5181 100.081 17.2328 100.544 16.6979C100.971 16.1273 101.184 15.307 101.184 14.2015C101.184 13.1316 100.971 12.2757 100.544 11.7408C100.116 11.2059 99.4756 10.8849 98.6212 10.8849C97.7668 10.8849 97.0904 11.1702 96.6632 11.7408C96.236 12.3114 95.9868 13.096 95.9868 14.1658Z" fill="white"/>
<path d="M106.24 15.093V18.6236H104.78V9.7793H107.272C108.411 9.7793 109.266 9.99327 109.8 10.4212C110.334 10.8492 110.619 11.4911 110.619 12.347C110.619 13.4525 110.049 14.2371 108.91 14.7007L111.402 18.6236H109.764L107.664 15.093H106.24ZM106.24 13.8805H107.237C107.913 13.8805 108.411 13.7378 108.696 13.4882C108.981 13.2385 109.159 12.8819 109.159 12.3826C109.159 11.8834 108.981 11.5268 108.661 11.3128C108.34 11.0988 107.842 10.9918 107.201 10.9918H106.24V13.8805Z" fill="white"/>
<path d="M116.635 10.8849C115.816 10.8849 115.14 11.1702 114.677 11.7764C114.214 12.3827 113.965 13.1673 113.965 14.2015C113.965 15.2713 114.179 16.0916 114.641 16.6622C115.104 17.2328 115.745 17.4824 116.635 17.4824C117.027 17.4824 117.383 17.4467 117.738 17.3754C118.094 17.3041 118.45 17.1971 118.842 17.0901V18.3383C118.166 18.5879 117.347 18.7306 116.493 18.7306C115.211 18.7306 114.214 18.3383 113.502 17.5537C112.826 16.7692 112.47 15.6636 112.47 14.2015C112.47 13.2743 112.648 12.4897 112.968 11.7764C113.289 11.0989 113.787 10.5639 114.428 10.2073C115.069 9.85067 115.816 9.67236 116.671 9.67236C117.561 9.67236 118.415 9.85067 119.162 10.243L118.628 11.4555C118.344 11.3128 118.023 11.2058 117.667 11.0989C117.347 10.9205 117.027 10.8849 116.635 10.8849Z" fill="white"/>
<path d="M120.907 18.6236V9.7793H122.366V18.6236H120.907Z" fill="white"/>
<path d="M132.726 14.1658C132.726 15.5923 132.37 16.7335 131.658 17.5181C130.946 18.3027 129.914 18.7306 128.596 18.7306C127.279 18.7306 126.247 18.3383 125.535 17.5538C124.823 16.7692 124.467 15.628 124.467 14.1658C124.467 12.7037 124.823 11.5981 125.535 10.8136C126.247 10.029 127.279 9.63672 128.596 9.63672C129.914 9.63672 130.91 10.029 131.658 10.8136C132.406 11.5981 132.726 12.7393 132.726 14.1658ZM125.998 14.1658C125.998 15.2714 126.211 16.0916 126.638 16.6622C127.066 17.2328 127.742 17.5181 128.596 17.5181C129.451 17.5181 130.092 17.2328 130.554 16.6979C130.982 16.1273 131.195 15.307 131.195 14.2015C131.195 13.1316 130.982 12.2757 130.554 11.7408C130.127 11.2059 129.486 10.8849 128.632 10.8849C127.778 10.8849 127.101 11.1702 126.674 11.7408C126.247 12.3114 125.998 13.096 125.998 14.1658Z" fill="white"/>
<path d="M25.1436 1.07787L24.3248 0.614258H24.2892L18.4509 4.00218L0.757812 14.2016V14.2373V20.9774V39.1652V45.0851V45.9054L24.3248 59.5284L47.8563 45.8341V36.6332L42.0891 33.3166V42.5531L24.2892 52.8595H24.2536L23.5061 52.4316L6.48937 42.5175V17.6252L23.5061 7.71106L24.2536 7.28311H24.2892L42.0891 17.8035V25.6492L47.8563 29.0371V20.8704V14.5226V14.2373L25.1436 1.07787Z" fill="white"/>
<path d="M11.3667 20.193V39.8429L24.2538 47.6886V12.6682L11.3667 20.193Z" fill="white"/>
<path d="M37.2478 33.8874V20.1931L28.1343 14.8794V38.9514L37.2478 33.8874Z" fill="white"/>
<path d="M24.2539 47.6885L37.2478 39.8428V38.345L24.2539 45.6201V47.6885Z" fill="white"/>
</svg>
