<svg width="336" height="108" viewBox="0 0 336 108" fill="none" xmlns="http://www.w3.org/2000/svg">
<path d="M133.601 88.3524H107.758V41.3262H119.404V78.0533H133.667V88.3524H133.601Z" fill="#233442"/>
<path d="M166.708 77.7942H151.79L148.388 88.3524H136.742L153.164 41.3262H165.399L181.821 88.3524H170.175L166.708 77.7942ZM163.763 68.4019L159.314 53.5038L154.865 68.4019H163.763Z" fill="#233442"/>
<path d="M220.228 84.5307H209.563L199.095 57.5198V88.3524H187.973V41.3262H203.021L214.798 71.0576L226.64 41.3262H241.688V88.3524H230.565V57.5198L220.228 84.5307Z" fill="#233442"/>
<path d="M277.934 77.7942H263.017L259.615 88.3524H247.969L264.391 41.3262H276.626L293.048 88.3524H281.402L277.934 77.7942ZM274.99 68.4019L270.541 53.5038L266.092 68.4019H274.99Z" fill="#233442"/>
<path d="M331.453 55.7709C331.453 58.4266 330.864 60.888 329.752 63.1551C328.639 65.3575 327.004 67.0416 324.845 68.2075L335.771 88.3524H322.947L314.442 70.9281H310.909V88.3524H299.328V41.3262H314.769C325.891 41.3262 331.453 46.1195 331.453 55.7709ZM313.853 51.1719H310.909V61.3415H314.376C315.946 61.3415 317.19 60.888 318.171 59.9812C319.087 59.0744 319.545 57.7789 319.545 56.1595C319.545 52.856 317.648 51.1719 313.853 51.1719Z" fill="#233442"/>
<path d="M115.87 18.655C114.365 18.655 113.122 19.1732 112.271 20.2743C111.421 21.3755 110.963 22.8005 110.963 24.679C110.963 26.6222 111.355 28.112 112.206 29.1484C113.056 30.1848 114.234 30.6382 115.87 30.6382C116.589 30.6382 117.244 30.5734 117.898 30.4439C118.552 30.3143 119.207 30.12 119.926 29.9257V32.1928C118.683 32.6462 117.178 32.9053 115.608 32.9053C113.253 32.9053 111.421 32.1928 110.112 30.7678C108.869 29.3427 108.215 27.3347 108.215 24.679C108.215 22.9948 108.542 21.5698 109.131 20.2743C109.72 18.9788 110.636 18.072 111.813 17.4243C112.991 16.7765 114.365 16.4526 115.935 16.4526C117.571 16.4526 119.141 16.7765 120.515 17.489L119.534 19.6914C119.01 19.4323 118.421 19.2379 117.767 19.0436C117.178 18.7845 116.524 18.655 115.87 18.655Z" fill="#233442"/>
<path d="M138.116 24.679C138.116 27.27 137.462 29.3427 136.154 30.7678C134.845 32.1928 132.948 32.9701 130.527 32.9701C128.106 32.9701 126.209 32.2576 124.9 30.8325C123.592 29.4075 122.938 27.3347 122.938 24.679C122.938 22.0232 123.592 20.0152 124.9 18.5902C126.209 17.1652 128.106 16.4526 130.527 16.4526C132.948 16.4526 134.78 17.1652 136.154 18.5902C137.462 20.0152 138.116 22.0232 138.116 24.679ZM125.751 24.679C125.751 26.687 126.143 28.1768 126.994 29.2132C127.779 30.2496 129.022 30.7678 130.592 30.7678C132.163 30.7678 133.34 30.2496 134.191 29.278C135.041 28.3064 135.369 26.7518 135.369 24.7438C135.369 22.8005 134.976 21.2459 134.191 20.2743C133.406 19.2379 132.228 18.7197 130.658 18.7197C129.088 18.7197 127.844 19.2379 127.059 20.2743C126.143 21.1812 125.751 22.671 125.751 24.679Z" fill="#233442"/>
<path d="M155.454 32.711H152.183L144.266 19.8857H144.201L144.266 20.5982C144.397 21.9585 144.397 23.1892 144.397 24.3551V32.711H141.977V16.647H145.182L153.165 29.4075H153.23C153.23 29.2132 153.165 28.6302 153.165 27.5938C153.099 26.5575 153.099 25.7154 153.099 25.1324V16.7117H155.52V32.711H155.454Z" fill="#233442"/>
<path d="M169.454 28.3713C169.454 29.7963 168.93 30.8975 167.883 31.7396C166.837 32.5816 165.397 32.9703 163.565 32.9703C161.733 32.9703 160.228 32.7112 159.051 32.1282V29.6668C159.77 29.9907 160.556 30.3145 161.406 30.5088C162.257 30.7032 163.042 30.8327 163.761 30.8327C164.808 30.8327 165.593 30.6384 166.117 30.2498C166.64 29.8611 166.837 29.3429 166.837 28.6304C166.837 28.0474 166.575 27.5292 166.117 27.0758C165.659 26.6224 164.743 26.169 163.304 25.586C161.799 25.003 160.752 24.2905 160.163 23.578C159.574 22.8007 159.247 21.8939 159.247 20.8575C159.247 19.4972 159.705 18.4608 160.686 17.6835C161.668 16.9062 162.911 16.5176 164.547 16.5176C166.117 16.5176 167.622 16.8414 169.192 17.554L168.341 19.6915C166.902 19.1086 165.593 18.7847 164.481 18.7847C163.631 18.7847 162.976 18.979 162.518 19.3677C162.06 19.7563 161.864 20.2097 161.864 20.8575C161.864 21.2461 161.93 21.6348 162.126 21.9586C162.322 22.2825 162.584 22.5416 162.976 22.8007C163.369 23.0598 164.089 23.3837 165.201 23.8371C166.379 24.3553 167.295 24.8087 167.818 25.1973C168.341 25.6508 168.799 26.1042 169.061 26.6224C169.323 27.011 169.454 27.6588 169.454 28.3713Z" fill="#233442"/>
<path d="M187.382 24.679C187.382 27.27 186.728 29.3427 185.419 30.7678C184.111 32.1928 182.213 32.9701 179.793 32.9701C177.372 32.9701 175.474 32.2576 174.166 30.8325C172.857 29.4075 172.203 27.3347 172.203 24.679C172.203 22.0232 172.857 20.0152 174.166 18.5902C175.474 17.1652 177.372 16.4526 179.793 16.4526C182.213 16.4526 184.045 17.1652 185.419 18.5902C186.793 20.0152 187.382 22.0232 187.382 24.679ZM174.951 24.679C174.951 26.687 175.344 28.1768 176.194 29.2132C176.979 30.2496 178.222 30.7678 179.793 30.7678C181.363 30.7678 182.541 30.2496 183.391 29.278C184.176 28.2416 184.569 26.7518 184.569 24.7438C184.569 22.8005 184.176 21.2459 183.391 20.2743C182.606 19.2379 181.428 18.7197 179.858 18.7197C178.288 18.7197 177.045 19.2379 176.26 20.2743C175.409 21.1812 174.951 22.671 174.951 24.679Z" fill="#233442"/>
<path d="M193.858 26.2984V32.711H191.176V16.647H195.756C197.849 16.647 199.419 17.0356 200.401 17.8129C201.382 18.5902 201.906 19.7561 201.906 21.3107C201.906 23.3187 200.859 24.7438 198.765 25.5858L203.345 32.711H200.335L196.475 26.2984H193.858ZM193.858 24.096H195.69C196.933 24.096 197.849 23.8369 198.373 23.3835C198.896 22.9301 199.223 22.2823 199.223 21.3755C199.223 20.4687 198.896 19.8209 198.307 19.4323C197.718 19.0436 196.802 18.8493 195.625 18.8493H193.858V24.096Z" fill="#233442"/>
<path d="M212.964 18.655C211.459 18.655 210.216 19.1732 209.365 20.2743C208.515 21.3755 208.057 22.8005 208.057 24.679C208.057 26.6222 208.449 28.112 209.3 29.1484C210.15 30.1848 211.328 30.6382 212.964 30.6382C213.683 30.6382 214.337 30.5734 214.992 30.4439C215.646 30.3143 216.3 30.12 217.02 29.9257V32.1928C215.777 32.6462 214.272 32.9053 212.702 32.9053C210.346 32.9053 208.515 32.1928 207.206 30.7678C205.963 29.3427 205.309 27.3347 205.309 24.679C205.309 22.9948 205.636 21.5698 206.225 20.2743C206.813 18.9788 207.729 18.072 208.907 17.4243C210.085 16.7765 211.459 16.4526 213.029 16.4526C214.665 16.4526 216.235 16.7765 217.609 17.489L216.627 19.6914C216.104 19.4323 215.515 19.2379 214.861 19.0436C214.272 18.7845 213.683 18.655 212.964 18.655Z" fill="#233442"/>
<path d="M220.812 32.711V16.647H223.495V32.711H220.812Z" fill="#233442"/>
<path d="M242.534 24.679C242.534 27.27 241.88 29.3427 240.572 30.7678C239.263 32.1928 237.366 32.9701 234.945 32.9701C232.524 32.9701 230.627 32.2576 229.318 30.8325C228.01 29.4075 227.355 27.3347 227.355 24.679C227.355 22.0232 228.01 20.0152 229.318 18.5902C230.627 17.1652 232.524 16.4526 234.945 16.4526C237.366 16.4526 239.198 17.1652 240.572 18.5902C241.946 20.0152 242.534 22.0232 242.534 24.679ZM230.103 24.679C230.103 26.687 230.496 28.1768 231.346 29.2132C232.132 30.2496 233.375 30.7678 234.945 30.7678C236.515 30.7678 237.693 30.2496 238.543 29.278C239.394 28.3064 239.721 26.7518 239.721 24.7438C239.721 22.8005 239.329 21.2459 238.543 20.2743C237.758 19.2379 236.581 18.7197 235.01 18.7197C233.44 18.7197 232.197 19.2379 231.412 20.2743C230.561 21.1812 230.103 22.671 230.103 24.679Z" fill="#233442"/>
<path d="M44.7518 0.906842L43.3124 0H43.2469L32.517 6.15357L0 24.7438V24.8086V36.9862V70.0211V80.8384V82.3282L43.3124 107.007L86.4939 82.1339V65.4221L75.9602 59.3981V76.1747L43.2469 94.8945H43.1815L41.8076 94.1172L10.5337 76.1099V30.8974L41.8076 12.8901L43.1815 12.1128H43.2469L75.9602 31.286V45.5364L86.4939 51.69V36.7919V25.262V24.8086L44.7518 0.906842Z" fill="url(#paint0_linear_781_25)"/>
<path opacity="0.45" d="M43.2463 12.1127L32.8435 6.02393L27.3477 9.13309L37.8813 15.2219L43.2463 12.1127Z" fill="url(#paint1_linear_781_25)"/>
<path opacity="0.45" d="M33.2371 101.307L43.2473 94.9595L38.6675 92.3037L28.7227 98.7164L33.2371 101.307Z" fill="url(#paint2_linear_781_25)"/>
<path d="M19.4336 35.5609V71.3164L43.1834 85.5668V21.8936L19.4336 35.5609Z" fill="url(#paint3_linear_781_25)"/>
<path d="M67.0646 60.4989V35.5607L50.25 25.9741V69.6321L67.0646 60.4989Z" fill="url(#paint4_linear_781_25)"/>
<path d="M43.1836 85.5666L67.0643 71.3162V68.5957L43.1836 81.8097V85.5666Z" fill="url(#paint5_linear_781_25)"/>
<defs>
<linearGradient id="paint0_linear_781_25" x1="72.7333" y1="24.4531" x2="-10.3896" y2="107.834" gradientUnits="userSpaceOnUse">
<stop stop-color="#FF283F"/>
<stop offset="0.9385" stop-color="#E42440"/>
</linearGradient>
<linearGradient id="paint1_linear_781_25" x1="33.6293" y1="13.6111" x2="36.2408" y2="8.8239" gradientUnits="userSpaceOnUse">
<stop offset="0.3352" stop-opacity="0"/>
<stop offset="1" stop-color="#1D1D1B"/>
</linearGradient>
<linearGradient id="paint2_linear_781_25" x1="34.2654" y1="94.2277" x2="36.9562" y2="98.194" gradientUnits="userSpaceOnUse">
<stop offset="0.3352" stop-opacity="0"/>
<stop offset="1" stop-color="#1D1D1B"/>
</linearGradient>
<linearGradient id="paint3_linear_781_25" x1="31.3309" y1="24.1579" x2="31.3309" y2="76.8161" gradientUnits="userSpaceOnUse">
<stop stop-color="#34495E"/>
<stop offset="1" stop-color="#233442"/>
</linearGradient>
<linearGradient id="paint4_linear_781_25" x1="58.6572" y1="23.5457" x2="58.6572" y2="79.1071" gradientUnits="userSpaceOnUse">
<stop stop-color="#34495E"/>
<stop offset="1" stop-color="#233442"/>
</linearGradient>
<linearGradient id="paint5_linear_781_25" x1="55.1194" y1="23.5458" x2="55.1194" y2="79.1072" gradientUnits="userSpaceOnUse">
<stop stop-color="#34495E"/>
<stop offset="1" stop-color="#233442"/>
</linearGradient>
</defs>
</svg>
