<svg width="33" height="33" viewBox="0 0 33 33" fill="none" xmlns="http://www.w3.org/2000/svg">
<path d="M32.5098 6.78842C31.3617 7.29717 30.1283 7.64092 28.8317 7.7963C30.1696 6.99576 31.1705 5.73581 31.6477 4.25154C30.3907 4.99816 29.015 5.52369 27.5804 5.80529C26.6157 4.77523 25.3379 4.09249 23.9454 3.86307C22.5529 3.63365 21.1236 3.87038 19.8794 4.53652C18.6352 5.20265 17.6458 6.26092 17.0646 7.54701C16.4835 8.83311 16.3433 10.2751 16.6657 11.649C14.1188 11.5212 11.6272 10.8592 9.35265 9.70604C7.07812 8.5529 5.07147 6.93439 3.46294 4.95554C2.91294 5.90429 2.59669 7.00429 2.59669 8.1758C2.59607 9.23041 2.85578 10.2689 3.35277 11.1991C3.84976 12.1292 4.56866 12.9223 5.44569 13.508C4.42857 13.4757 3.43389 13.2008 2.54444 12.7064V12.7889C2.54434 14.2681 3.05598 15.7017 3.99256 16.8465C4.92915 17.9914 6.23297 18.7769 7.68281 19.0699C6.73926 19.3253 5.75003 19.3629 4.78981 19.1799C5.19887 20.4526 5.99568 21.5656 7.06869 22.3629C8.1417 23.1603 9.4372 23.6022 10.7738 23.6267C8.50483 25.4079 5.70266 26.374 2.81806 26.3698C2.30709 26.3699 1.79654 26.3401 1.28906 26.2804C4.21709 28.163 7.62553 29.1622 11.1066 29.1583C22.8903 29.1583 29.3322 19.3985 29.3322 10.934C29.3322 10.659 29.3253 10.3813 29.3129 10.1063C30.566 9.20013 31.6476 8.07803 32.5071 6.79254L32.5098 6.78842Z" fill="#FF283F"/>
</svg>
