<svg width="30" height="30" viewBox="0 0 30 30" fill="none" xmlns="http://www.w3.org/2000/svg">
<path fill-rule="evenodd" clip-rule="evenodd" d="M21.4338 17.701C21.0671 17.5176 19.2689 16.6339 18.9341 16.5108C18.5994 16.389 18.3557 16.3287 18.1108 16.6954C17.8671 17.0597 17.1668 17.8843 16.9538 18.128C16.7397 18.373 16.5268 18.4025 16.1612 18.2203C15.7957 18.0357 14.6166 17.6505 13.2197 16.405C12.1329 15.4351 11.3981 14.2376 11.1852 13.8708C10.9723 13.5053 11.1618 13.3071 11.3452 13.125C11.5101 12.9613 11.7108 12.6979 11.8941 12.485C12.0775 12.2708 12.1378 12.1182 12.2597 11.8733C12.3828 11.6296 12.3212 11.4167 12.2289 11.2333C12.1378 11.0499 11.4068 9.24927 11.1015 8.51697C10.8049 7.80435 10.5034 7.90158 10.2794 7.88928C10.0652 7.87943 9.82153 7.87697 9.57784 7.87697C9.33415 7.87697 8.93784 7.96804 8.60307 8.33481C8.26707 8.70035 7.32307 9.58527 7.32307 11.3859C7.32307 13.1853 8.63261 14.9243 8.81599 15.1693C8.99938 15.413 11.3945 19.1077 15.0634 20.6917C15.9372 21.0683 16.6178 21.2936 17.1483 21.461C18.0246 21.7403 18.8221 21.701 19.4523 21.6062C20.1538 21.5016 21.616 20.7213 21.9212 19.8671C22.2252 19.013 22.2252 18.2807 22.1341 18.128C22.0431 17.9754 21.7994 17.8843 21.4326 17.701H21.4338ZM14.7606 26.8123H14.7557C12.5765 26.8127 10.4374 26.2269 8.56246 25.1163L8.11938 24.853L3.51384 26.0616L4.74338 21.5717L4.45415 21.1114C3.23586 19.1722 2.59113 16.9278 2.59446 14.6376C2.59692 7.92989 8.05415 2.47266 14.7655 2.47266C18.0148 2.47266 21.0695 3.74036 23.3661 6.03943C24.4989 7.16753 25.3967 8.50905 26.0077 9.98638C26.6187 11.4637 26.9306 13.0475 26.9255 14.6462C26.9231 21.3539 21.4658 26.8123 14.7606 26.8123ZM25.1138 4.29297C23.7578 2.92795 22.1443 1.84563 20.3669 1.10873C18.5895 0.371821 16.6835 -0.00501692 14.7594 5.04339e-05C6.69292 5.04339e-05 0.125538 6.5662 0.123077 14.6363C0.121846 17.216 0.795076 19.7342 2.07631 21.9533L0 29.5385L7.75876 27.5028C9.90507 28.6722 12.3103 29.2849 14.7545 29.285H14.7606C22.8271 29.285 29.3944 22.7188 29.3969 14.6474C29.4029 12.7241 29.0274 10.8186 28.2922 9.04132C27.557 7.264 26.4767 5.6501 25.1138 4.29297Z" fill="#FF283F"/>
</svg>
